<?xml version="1.0" encoding="UTF-8" standalone="no"?>
<svg
   viewBox="0 0 800 800"
   version="1.1"
   id="svg1"
   sodipodi:docname="favicon.svg"
   width="800"
   height="800"
   inkscape:version="1.4.2 (ebf0e940d0, 2025-05-08)"
   xmlns:inkscape="http://www.inkscape.org/namespaces/inkscape"
   xmlns:sodipodi="http://sodipodi.sourceforge.net/DTD/sodipodi-0.dtd"
   xmlns="http://www.w3.org/2000/svg"
   xmlns:svg="http://www.w3.org/2000/svg">
  <defs
     id="defs1" />
  <sodipodi:namedview
     id="namedview1"
     pagecolor="#ffffff"
     bordercolor="#000000"
     borderopacity="0.25"
     inkscape:showpageshadow="2"
     inkscape:pageopacity="0.0"
     inkscape:pagecheckerboard="0"
     inkscape:deskcolor="#d1d1d1"
     inkscape:zoom="0.39111328"
     inkscape:cx="291.47566"
     inkscape:cy="274.85643"
     inkscape:window-width="1920"
     inkscape:window-height="1003"
     inkscape:window-x="0"
     inkscape:window-y="0"
     inkscape:window-maximized="1"
     inkscape:current-layer="svg1" />
  <!--!Font Awesome Free 6.7.2 by @fontawesome - https://fontawesome.com License - https://fontawesome.com/license/free Copyright 2025 Fonticons, Inc.-->
  <circle
     style="fill:#501a29;fill-opacity:1;stroke-width:1.07414"
     id="path2"
     cx="401.50064"
     cy="401.50064"
     r="398.22223" />
  <path
     d="m 192.27216,214.12338 c 0,-17.7 14.3,-32 32,-32 h 320 64 c 70.7,0 128,57.3 128,128 0,70.7 -57.3,128 -128,128 h -32 c 0,53 -43,96 -96,96 h -192 c -53,0 -96,-43 -96,-96 z m 384,160 h 32 c 35.3,0 64,-28.7 64,-64 0,-35.3 -28.7,-64 -64,-64 h -32 z m -448,192 h 512 c 17.7,0 32,14.3 32,32 0,17.7 -14.3,32 -32,32 h -512 c -17.7,0 -32,-14.3 -32,-32 0,-17.7 14.3,-32 32,-32 z"
     id="path1"
     style="fill:#6449cf;fill-opacity:1" />
</svg>
